<?xml version="1.0" encoding="UTF-8"?>
<svg id="Camada_1" data-name="Camada 1" xmlns="http://www.w3.org/2000/svg" viewBox="0 0 2758 1536">
  <defs>
    <style>
      .cls-1 {
        fill: #e15213;
      }

      .cls-2 {
        fill: #f9b359;
      }

      .cls-3 {
        fill: #318376;
      }

      .cls-4 {
        fill: #df8f90;
      }

      .cls-5 {
        fill: #2d2925;
      }

      .cls-6 {
        fill: #e67b8b;
      }

      .cls-7 {
        fill: #272521;
      }

      .cls-8 {
        fill: #14427e;
      }

      .cls-9 {
        fill: #7e7889;
      }

      .cls-10 {
        fill: #d03616;
      }

      .cls-11 {
        fill: #25211d;
      }

      .cls-12 {
        fill: #26241e;
      }
    </style>
  </defs>
  <path class="cls-7" d="M1488.2549,932.5562l452.37-49.16c7.12-.77,11.95,3.06,13.17,8.66,1.2201,5.6-1.83,11.8-9.26,12.61l-450.46,49.3c-10.8,23.44-28.42,39.68-50.91,50.26-34.97,15.74-74.61,15.41-109.4401-.59-22.12-10.6-39.25-26.55-49.37-49.78l-454.26-49.19c-6.38-.69-9.16-6.98-8.7-11.5.58-5.73,5.05-10.5,12.53-9.69l456.79,49.15c5.2.56,10.13,4.77,11.95,8.92,9.5601,21.77,26.63,37.59,49.37,45.65,45.11,15.98,101.67,1.57,122.36-43.24,2.35-5.08,6.02-10.52,13.85-11.37l.0101-.03Z"/>
  <path class="cls-1" d="M1371.3348,442.2962c8.6899,4.68,5.8199,17.31,6.3,25.56.14,6.96.0699,16.07.0601,24.15-.0699,25.44-.11,62.48-.17,85.22-.52,13.57,1.17,26.03-1.91,39.12-4.75,16.13-33.72,14.53-47.5,18.36-18.9,2.97-37.54,7.76-56.47,10.45-24.42,2.21-17.63-14.46-18.53-31.36.03-32.91.04-93.38.15-120.31,1.11-16.6,24.54-19.61,38.12-25.75,17.02-6.27,37.58-13.77,53.9301-19.78,8.45-2.37,17.08-8.78,25.92-5.7l.11.05-.0101-.0099Z"/>
  <path class="cls-2" d="M1264.7248,468.2162c-1.92.71-6.54.7-7.87.11-1.66-.74-3.0601-4.38-3.0601-6.8l-.13-132.55c0-6.02,4.03-10.63,9.1-13.65l106.52-53.51,5.4.22c1.42.06,2.8,3.72,2.8,5.33l.0699,151.07c0,5.53-4.34,9.65-9.0699,11.4l-103.75,38.39-.01-.01Z"/>
  <path class="cls-10" d="M1132.1048,516.4962c-2.35.54-6.92,1.13-7.53-.17l-2.55-5.44-.27-114.3c.6801-7.49,4.41-13.51,11.51-16.02l103.1801-52.05,5.75.47c1.49.12,2.59,3.67,2.59,5.48l.22,132.18c0,3.59-2.5,8.37-4.88,10.4l-108.03,39.45h.0101Z"/>
  <path class="cls-2" d="M1477.5948,469.5162c2.42,2.06,2.47,5.32,2.78,8.35,1.65,38.25.65,118.29.77,144.77,1.58,16.64-12.5699,16.44-25.08,13.65-12.42-2.33-24.5-4.5-37.45-6.93-10.11-2.59-26.91-2.16-32.6-11.47-3.5-29.77-.4-135.3-1.53-166.4-.22-5.97,3.23-9.85,10.02-9.61,7.5699.25,17.22,4.84,25.5601,7.27,18,6.7,41.84,12.45,57.48,20.32l.05.04-.0002.0099Z"/>
  <path class="cls-1" d="M1772.2649,687.5862l-107.65-18.34c-4.58-.78-7.5601-4.9-7.76-9.64l-.0699-122.14,2.46-5.35c.64-1.4,4.62-.56,6.37.05l110.21,37.93c3.78,1.3,4.97,10.94,4.0699,14.33l-.0601,96-1.51,5.19c-.41,1.42-4.4301,2.26-6.0699,1.98l.0101-.0099Z"/>
  <path class="cls-1" d="M1481.6048,448.6062c0,2.1-1.62,5.91-2.8101,6.51-1.48.75-5.17,1.03-6.88.45l-78.77-26.44c-4.21-1.41-8.55-5.85-8.55-10.64l-.0601-152.9c3.23-2.23,7.35-2.24,10.79-.61l77.21,36.58c2.97,1.41,8.84,6.62,8.85,10.16l.22,136.89h.0002Z"/>
  <path class="cls-6" d="M1132.4049,782.4662c-6.58.22-10.01-3.44-10.02-9.04l-.04-86.29c0-3.43,3.01-9.02,6.24-9.57l108.01-18.36c4.02-.68,8.36,3.66,8.35,7.67l-.04,104.46c0,3.84-4.58,7.53-8.25,7.65l-104.27,3.48h.0201Z"/>
  <path class="cls-1" d="M1473.5549,777.0562l-80.38-3.06c-4.2-.16-7.67-3.53-8.49-7.74l.02-120.34c0-3.75,4.6801-8.48,8.12-7.95l79.1,12.1c5.14.79,8.8101,3.63,10.0601,8.99l.03,109.23c0,4.06-3.73,8.96-8.47,8.78l.0099-.01Z"/>
  <path class="cls-1" d="M1261.9149,304.8562c-1.42.73-4.6,1.74-5.24,1.09l-3.7-3.81.4301-83.53c1.86-3.19,4.26-6.19,7.0699-8.75l108.21-63.8,5.65-.44c1.59-.12,2.73,4.3,2.98,6.02l.15,87.74c-.71,4.24-3.22,7.97-7.0699,9.94l-108.48,55.53v.01Z"/>
  <path class="cls-2" d="M1567.1649,643.2562c0,5.03-4.14,8.88-8.4301,8.22l-60.37-9.33c-2.54-.39-5.89-5.53-6.64-8.64l-.04-150.82,1.87-4.5c.55-1.32,5.3101-1.75,6.79-1.26l59.3,19.86c4.0601,1.36,7.47,5.29,7.48,9.71l.04,136.76h0Z"/>
  <path class="cls-8" d="M1773.0449,787.0662l-105.96-3.82c-4.66-.17-10.1-2.73-10.11-8.23l-.11-87.76c0-4.21,4.37-7.3,8.34-6.66l106.74,17.23c4.17.67,7.98,4.68,7.99,8.93l.1,71.57c0,3.66-2.8,7.59-7,8.74h.01Z"/>
  <path class="cls-1" d="M1369.9049,881.7262l-110.4-9.38c-2.37-.85-5.78-4.99-5.78-7.54v-65.71c0-6.29,4.34-9.86,10.38-10.01l105.22-2.61c4.04-.1,8,3.87,8,7.73l.0699,79.11c0,3.58-3.26,7.41-7.5,8.41h.0101Z"/>
  <path class="cls-1" d="M1640.6349,665.4562l-55.98-9.65c-3.5699-.62-6.79-4.2-7.76-8.21v-137.8c1.25-2.37,3.4399-4.42,5.42-5.04l57.8199,18.51c3.99,1.28,8.0601,5.95,8.0601,10.78l.03,123.9c0,3.53-3.6,6.84-7.58,7.5l-.0101.01Z"/>
  <path class="cls-8" d="M1648.3548,505.5062c0,3.63-3.83,8.12-7.14,6.98l-59.21-20.27c-2.64-.91-4.95-6.7-5.23-9.2l-.0699-125.4,2.29-4.29c1.78-5.4,58.08,25.49,60.8101,25.56,4.04,1.89,8.45,7.21,8.45,12.15l.09,114.47h.0099Z"/>
  <path class="cls-3" d="M1779.5349,426.6762c-1.01,1.62-3.65,3.54-5.3101,3.85l-111.53-53.94c-3.91-2.39-6.29-6.73-6.05-11.21l-.1-64.01c.33-1.39.91-4.35,1.97-4.45l5.05-.47,110.78,59.65c2.96,2.65,4.91,6.67,5.47,10.47l-.28,60.11h.0001Z"/>
  <path class="cls-8" d="M1237.5349,870.5662l-105.7-8.47c-5.17-.41-9.79-2.5-9.78-8.39l.13-53.64c0-3.17,4.4301-7.58,7.51-7.66l107.0699-2.62c4.03-.1,7.83,4.05,7.83,7.86l.0601,65.12c0,2.76-3.12,8.12-7.11,7.8h-.01Z"/>
  <path class="cls-1" d="M1557.9949,780.1362l-56.2-1.94c-5.64-.19-10.1801-3.82-10.1801-10.15v-106.4c0-4.13,4.62-7.83,8.3101-7.26l57.15,8.76c5.66.87,10.12,3.71,10.12,10.35l-.04,98.05c0,4.65-4.11,8.76-9.15,8.58l-.01.0101Z"/>
  <path class="cls-4" d="M1056.3049,680.5662c-3.64.67-8.47-2.66-8.47-6l-.29-107.75c-.01-4.78,3.01-11.48,7.02-12.95l49.54-18.14c2-.73,5.09-1.45,6.66-1.07s3.36,4.58,3.36,6.25l.02,121.93c-.91,3.26-4.16,7.83-6.74,8.31l-51.1,9.42h-.0001Z"/>
  <path class="cls-9" d="M1054.1849,543.9462c-2.4.88-6.99-6.14-6.4-8.46l-.1-102.55c.73-6.08,3.9399-10.58,9.12-13.21l48.13-24.43c1.37-.7,4.9-1.45,6.33-1.09s2.78,4.08,2.78,5.68l.17,111.69c0,5.75-3.47,11.59-8.66,13.5l-51.37,18.87Z"/>
  <path class="cls-1" d="M1640.8448,782.2662l-57.91-2.23c-2.65-.96-6-5.05-6-8.21l-.05-97.42c.41-3.32,4.16-6.93,7.38-6.44l55.71,8.52c4.1801.64,8.27,4.4,8.27,9.01l.03,89.63c0,2.84-4.14,7.26-7.42,7.13l-.0099.0099Z"/>
  <path class="cls-1" d="M1567.0748,324.6162c0,1.44-1.04,4.45-1.74,5.25-.9301,1.06-5.24,1.38-6.55.75l-58.0601-27.82c-5.54-2.65-9.17-7.25-9.17-13.31l.03-75.93c0-1.19.62-4.21,1.67-4.45l5.23-1.2,60.27,31.45c4.75,2.88,8.3199,8.08,8.3199,13.73v71.54-.01Z"/>
  <path class="cls-3" d="M1846.0349,576.7662l-1.8,4.24c-.39.91-3.24.98-4.41.99l-47.21-17.02c-1.8-1.58-3.87-4.42-4.9301-6.85l.09-104.89,1.66-3.09c.51-.95,3.53-.81,4.79-.67l45.84,22.04c2.87,1.89,5.25,5.39,6.21,9.04l-.26,96.21h.0201Z"/>
  <path class="cls-3" d="M1053.7549,785.7462c-2.35.05-6.25-4.99-6.25-7.47l.08-78.71c0-3.92,4.53-8.15,7.87-8.73l50.46-8.81c3.73-.65,8.21,2.82,8.21,6.98l-.05,87.54c0,4.32-5.29,7.97-9.3,8.06l-51.02,1.15.0002-.01Z"/>
  <path class="cls-8" d="M1846.1549,691.5362c0,2.25-1.13,5.67-2.24,6.44s-4.6899,1.42-6.05,1.19l-42.66-7.38c-4.35-.75-7.5699-5.18-7.48-9.62v-101.65l1.65-4.49c.36-.98,4.02-.92,5.36-.45l45.72,15.98c3.11,1.09,5.78,6.11,5.78,9.41l-.08,90.56v.0101Z"/>
  <path class="cls-3" d="M998.5749,691.6962c-4.12.74-8.01-2.04-8.84-6.16l.07-101.75c0-4.93,4.53-8.9,8.82-10.49l35.02-12.98c1.15-.43,4.41-.5,4.87.39l2.22,4.34v110.29c0,4.75-4.47,9.59-8.76,10.36l-33.39,6.02-.0099-.0201Z"/>
  <path class="cls-9" d="M937.1048,702.3662c-4.33.78-8.68-2.13-8.68-6.55l.08-89.46c0-4.61,4.25-8.91,8.36-10.42l37.77-13.87c1.21-.44,4.93-.61,5.8.05,1.16.88,2.18,3.77,2.19,5.53l.07,99.34c0,4.11-4.21,7.89-7.99,8.57l-37.6,6.8v.01Z"/>
  <path class="cls-8" d="M936.8949,587.0162c-3.22,1.21-8.11-1.79-8.11-5l-.02-89.42c0-3.25,3.3-9.05,5.92-10.39l38.98-20.02,5.34-2.26c1.49-.63,3.34,3.68,3.61,5.43l.09,99.13c-1.01,2.79-4.47,6.98-7.01,7.94l-38.81,14.6.01-.0099Z"/>
  <path class="cls-8" d="M1056.1549,409.9162c-1,.52-5.45.94-6.17.12-.96-1.09-2.11-3.93-2.12-5.42l-.46-60.27c-.03-4.44,2.72-9.62,6.27-12.01l52.45-30.7,5.27-.32c1.45-.09,2.65,3.72,2.66,5.22l.1,64.01c0,3.76-2.9,10.48-6.1801,12.2l-51.8101,27.17h-.0099Z"/>
  <path class="cls-8" d="M1642.4349,861.3162l-58.02,4.43c-3.62.28-7.54-3.97-7.54-7.74l.14-59c.01-4.88,4.63-8.14,9.13-8.03l53.66,1.36c4.08.1,8.42,4.15,8.42,8.47l.03,53.47c-.3199,1.79-3.78,6.88-5.8199,7.04h-.0001Z"/>
  <path class="cls-3" d="M934.7449,789.0862c-2.57.02-6.32-4.1-6.32-6.92l.02-60.59c0-5.98,4.25-9.53,9.65-10.49l37.05-6.64c3.59-.64,7.83,3.15,7.83,7.16l.11,68.62c0,4.63-3.83,8.44-8.12,8.48l-40.22.37v.0101Z"/>
  <path class="cls-9" d="M936.0849,472.1162c-1.05.55-3.59,1.04-4.42.71-1.12-.43-2.91-3.55-2.91-5.11l-.11-55.97c0-3.32,2.74-8.15,5.44-9.76l41.8-25.08c.83-.5,3.47-1.05,4.25-.61,1.04.59,2.36,3.46,2.36,5.18l.15,59.38c.01,5.18-3.07,8.59-7.28,10.78l-39.28,20.49v-.01Z"/>
  <path class="cls-9" d="M1841.2248,845.0062l-46.8199,3.1c-2.76.18-6.8199-3.17-6.8199-5.36v-40.56c0-2.46,4.05-6.46,6.88-6.41l46.25.83c2.52.05,5.5601,4.97,5.5601,7.75l.03,34.11c0,1.86-3.22,6.42-5.0699,6.54h-.0103Z"/>
  <path class="cls-1" d="M1034.9249,852.8762l-38.08-3.54c-2.4-.22-6.63-4.21-6.64-6.85l-.11-39.9c0-2.14,3.39-6.8,5.35-6.84l38.1-.75c3.8101-.08,7.13,3.82,7.13,7.33l.05,43.76c0,2.28-3.42,7.02-5.8101,6.79h.01Z"/>
  <path class="cls-1" d="M976.2348,847.3462l-39.82-3.11c-3.23-.25-7.6-3.83-7.61-7.1l-.02-32.96c0-4.06,4.07-7.51,7.94-7.57l38.39-.59c3.72-.06,7.6,2.73,7.61,6.74l.03,39.14c-.56,1.91-4.38,5.62-6.52,5.45Z"/>
  <path class="cls-11" d="M663.9949,1301.3362c0,48.1801-39.06,87.24-87.24,87.24s-87.24-39.0601-87.24-87.24,39.06-87.24,87.24-87.24,87.24,39.0601,87.24,87.24ZM609.6648,1336.5262c16.02-18.28,16.05-47.33,3-66.7-15.69-23.28-52.57-24.55-69.81-2.8-14.3,18.05-15.02,44.5-3.08,63.87,14.63,23.73,50.69,27.54,69.89,5.63Z"/>
  <path class="cls-11" d="M1209.9249,1355.8462l-64.7-.38-10.6801,30.5601-43.72-.0699,63.29-168.62,47.72-.11,63.6899,168.6801-44.9.1801-10.71-30.24.01-.0002ZM1198.9949,1323.1462l-21.12-60.2-21.17,60.1899h42.29v.01Z"/>
  <path class="cls-11" d="M783.2248,1380.9862c-26.97,11.89-58.24,9.27-80.94-7.25-13.27-9.66-19.93-23.58-19.8-39.34l43.66-.0699c1.73,6.5601,4.63,13.4301,8.65,16.38,6.08,4.48,13.91,5.14,20.54,3.7,7.49-1.63,12.35-6.79,13.27-13.1,1.03-7-3.04-14.53-10.61-17.28l-46.24-16.8101c-19.46-7.0699-30-24-28.88-44.29,1.04-18.84,11.38-34.53,29.42-41.86,20.94-8.5,45.43-8.6899,66.63-.38,18.71,7.34,30.39,24.11,30.58,44.17l-43.8.23c-1.45-12.22-10.39-18.72-22.2-18.21-7.98.34-14.95,4.63-16.51,12.5699-1.2,6.1,2.51,14.67,9.91,17.38l34.04,12.4399c11.6,4.24,24.4,9.04,32.26,19.3199,18.26,23.87,8.41,59.87-19.99,72.39l.01.0101Z"/>
  <polygon class="cls-12" points="937.1949 1316.2462 879.0849 1316.2262 879.0749 1353.0062 944.7649 1352.9762 944.5549 1386.0362 837.5649 1386.0761 837.5448 1217.2862 944.6549 1217.2562 944.7049 1250.1762 879.0649 1250.2362 879.1349 1283.4662 936.9748 1283.4262 937.1949 1316.2462"/>
  <polygon class="cls-12" points="1066.7849 1285.2862 1066.8849 1317.9162 1012.3249 1317.8062 1012.3349 1386.0062 970.9248 1386.1862 970.9248 1217.2662 1082.7449 1217.2662 1082.8648 1250.2061 1012.3449 1250.3062 1012.3449 1285.3462 1066.7849 1285.2862"/>
  <path class="cls-7" d="M375.9549,1381.6462c-21.06-9.96-31.06-30.98-30.15-53.1l43.23-.0699c-1.52,11.74,4.47,21.62,14.57,22.5601,11.64,1.09,18.66-7.24,18.66-19.21l.02-114.5699h41.62l-.47,120.9c-.07,18.38-10.79,35.3101-26.69,43.0699-18.97,9.26-41.2,9.6801-60.77.42l-.02-.0002Z"/>
  <path class="cls-11" d="M1797.9748,1299.7962c15.12,6.76,26.3101,18.4301,27.67,35.76,4.1899,27.49-15.99,51.24-44.66,51.47l-91.75.75.16-168.86,81.6801.0699c7.4399,0,15.49,2.1899,22.58,4.03,18.5,6.6899,29.83,23.72,27.6801,43.47-.64,14.47-8.27,25.54-23.37,33.3101h.0099ZM1768.2549,1285.1662c9.8-.3101,11.83-12.02,10.92-19.24-.76-6.0601-6.25-13.91-14.15-14.01l-34.3-.45.02,34.9,37.51-1.1899v-.0101ZM1765.1449,1354.5761c12.59-.09,19.5601-9.29,19.04-19.7-.48-9.67-7.72-17.89-18.62-17.98l-34.67-.29-.11,38.23,34.36-.26Z"/>
  <path class="cls-11" d="M2062.1748,1348.2762c-15.3199,24.27-40.49,39.01-68.9399,39.11l-72.86.26v-168.7l75.17.5699c22.87.17,43.3,11.21,58.3899,27.54,22.8701,29.09,26.1001,67.92,8.24,101.22ZM2028.6449,1323.2662c4.03-14.26,4.05-28.1899-.92-41.39-5.77-15.3199-19.47-26.88-36.37-27.14l-29.2-.46.03,98.13,31.22-1.09c16.5601-.58,29.4399-12.16,35.24-28.04v-.01Z"/>
  <path class="cls-11" d="M2264.7148,1303.1362c0,48.1899-39.0601,87.25-87.25,87.25s-87.25-39.0601-87.25-87.25,39.0601-87.25,87.25-87.25,87.25,39.0601,87.25,87.25ZM2214.2148,1333.0562c11.6399-19.4,11.47-45.3101-2.22-63.39-16.5601-21.86-52.28-21.75-68.9199-.0601-13.9299,18.15-13.8501,44.08-2.6599,63.03,7.99,13.52,22.22,19.45,36.3899,19.66,14.1599.21,29.01-5.23,37.4099-19.24Z"/>
  <path class="cls-11" d="M1666.7949,1303.0663c0,48.12-39.01,87.13-87.13,87.13s-87.13-39.01-87.13-87.13,39.01-87.13,87.13-87.13,87.13,39.01,87.13,87.13ZM1615.6849,1333.8862c12.85-20.4,11.92-48.83-3.71-66.8199-15.63-17.99-46.51-17.63-63.37-1.33-11.65,11.27-14.39,26.55-13.64,42.03.96,19.74,12.42,36.72,29.9,42.24,18.29,5.78,39.59,1.71,50.8199-16.12h0Z"/>
  <path class="cls-11" d="M2385.105,1381.7762c-22.99,11.55-49.26,10.26-71.8899.5699-19.1399-8.2-30.8401-26.41-30.6399-46.25h43.95c1.3601,14.47,12.6399,22.88,26.97,20.6899,5.9099-.9,12.1201-4.79,14.01-9.95,1.73-4.72.6899-13.6-3.5701-16.77-22.98-17.17-77.1299-13.4-80.4399-58.9399-1.6599-22.87,10.8899-42.9,33.1201-50.05,19.6699-6.33,41.22-6.62,60.72.5,19.4299,7.09,31.6899,23.87,32.0601,45.04l-43.73.13c-1.29-12.63-11.24-19.0601-22.79-18.0699-8,.48-14.3899,4.85-15.7,11.98-1.1899,6.46,1.73,15.1801,9.04,17.84l41.6201,15.1801c11.1101,4.05,22.46,10.86,28.3899,21.4,13.24,23.52,3.99,54.09-21.1299,66.71l.0095-.01Z"/>
  <rect class="cls-11" x="1803.3426" y="1299.9322" width="134.5701" height="41.48" transform="translate(549.3026 3190.8387) rotate(-89.98)"/>
  <rect class="cls-11" x="1854.0525" y="1208" width="33.17" height="41.48" rx="7.41" ry="7.41" transform="translate(641.2448 3098.9486) rotate(-89.98)"/>
  <polygon class="cls-5" points="1138.5349 1156.1662 1137.7749 1101.5761 1113.2248 1155.9662 1102.5848 1155.7962 1077.9349 1101.7862 1077.3849 1155.9862 1063.0948 1155.9362 1063.0848 1072.1662 1079.1148 1072.3762 1107.9949 1136.0162 1137.0549 1072.4962 1152.8548 1072.2962 1152.8548 1156.1062 1138.5349 1156.1662"/>
  <polygon class="cls-5" points="1302.3248 1155.8562 1287.5149 1155.5761 1247.9848 1097.9362 1247.2348 1155.9762 1233.0848 1155.9162 1233.1048 1072.2662 1247.6249 1072.4662 1287.6249 1131.7762 1287.9648 1072.2462 1302.3149 1072.1262 1302.3248 1155.8562"/>
  <path class="cls-5" d="M721.7649,1121.8062l-31.05-.46v-11.2l45.04-.21c4.04,22.61-11.56,44.29-35.05,46.74-27.42,2.86-49.25-17.52-47.94-44.8199,1.19-24.73,21.04-42.27,45.73-40.6,15.84,1.0699,30.08,9.12,35.28,24.95l-16.28.39c-6.89-11.35-19.82-14.62-31.47-10.8101-12.06,3.9399-18.82,15.95-18.34,29.41.51,14.21,8.96,26.5601,22.6,28.61,13.67,2.05,28.28-4.0699,31.46-22.01l.02.0099Z"/>
  <path class="cls-5" d="M1999.1449,1114.2362c0,23.7-19.21,42.91-42.91,42.91s-42.91-19.21-42.91-42.91,19.21-42.91,42.91-42.91,42.91,19.21,42.91,42.91ZM1983.9848,1114.3962c-.02-17.99-12.8101-30.66-28.8-30.36-16.4399.3-27.25,14.28-26.83,31.25.42,16.88,12.24,29.63,28.59,29.35,15.37-.26,27.0601-12.89,27.04-30.24Z"/>
  <path class="cls-7" d="M1468.2348,1114.2362c0,23.67-19.1899,42.86-42.86,42.86s-42.86-19.1899-42.86-42.86,19.1899-42.86,42.86-42.86,42.86,19.1899,42.86,42.86ZM1453.0049,1114.3862c-.03-17.83-12.05-30.78-28.26-30.4-15.67.37-26.52,13.16-26.85,29.52-.33,16.36,10.42,30.8199,26.78,31.11,16.08.29,28.36-12.36,28.33-30.23Z"/>
  <path class="cls-5" d="M793.9748,1156.1362l-18.36-31.49c-1.6-2.74-10.46-3.1-11.93-.8199l-.16,32.1-14.34.1.04-83.87,35.53.38c12.47.13,22.63,9.73,24.15,19.64,2.12,13.78-3.14,25.02-17.77,29.7l19.97,33.96-17.13.3101v-.01ZM785.4049,1110.9262c5.38-.26,9.13-8.15,9.39-12.38.26-4.23-2.13-12.78-7.35-13.14l-23.91-1.64.11,28.23,21.76-1.0601v-.0099Z"/>
  <path class="cls-7" d="M1583.3949,1114.3662c.17,22.88-14.91,41.0699-37.66,41.37l-34.46.45v-84.0601l33,.4301c23.1.3,38.95,18.63,39.12,41.8v.01ZM1553.8448,1141.3062c11.61-5.3101,15-16.67,15.0601-26.88.0601-10.4399-3.86-21.17-14.4399-26.62-8.36-4.3101-19.04-3.84-28.98-3.4399l.03,59.9301c9.3101.21,19.91.88,28.34-2.98l-.0101-.0101Z"/>
  <path class="cls-5" d="M1029.9448,1138.5862l-35.17.12-5.96,17.29-15.3-.37,30.17-83.36,17.19.05,30.79,83.65-15.99-.11-5.73-17.26v-.0101ZM1025.9149,1126.8261l-13.61-37.46-13.41,37.23,27.02.23Z"/>
  <path class="cls-5" d="M2116.845,1138.6262l-35.03-.12-5.99,17.4301-15.0901-.1,29.8899-83.48,16.9199-.05,31.04,83.3199-15.5701.51-6.1699-17.52.0002.01ZM2112.4448,1126.3662l-13.4199-36.96-12.9399,37.48,26.3601-.52h-.0002Z"/>
  <path class="cls-5" d="M624.6648,1138.7162l-35.79-.08-5.83,17.34-15.15-.0699,29.95-83.42,16.82-.33,31.14,83.5-15.61.45-5.53-17.39ZM619.8849,1126.7462l-13.57-36.83-13.06,36.83h26.63Z"/>
  <path class="cls-5" d="M876.7749,1072.4062l14.24-.15-.42,58.04c-.13,17.6801-17.1,26.96-33.39,26.76-16.29-.2-31.88-10.48-31.97-28.12l-.3-56.64,14.4-.03-.05,51.61c-.01,10.92,5.44,19.01,16.08,20.41,8.9,1.17,20.86-3.65,20.95-15.3l.47-56.58h-.0101Z"/>
  <path class="cls-5" d="M1848.4748,1139.0663c13.25,9.46,30.7,6.62,37.83-7.65l16.88-.24c-4.64,15.66-18.87,24.4-34.88,25.74-26.01,2.1801-46.5-17.39-46.03-43.35.46-25.25,20.27-44.09,45.4399-42.1801,15.83,1.2,29.64,9.17,35.72,25.83l-16.27.55c-6.11-10.39-16.3199-15.29-27.89-13.1899-10.21,1.85-18.83,10.05-21.16,21.59s-.2,25.36,10.37,32.9h-.0098Z"/>
  <path class="cls-5" d="M2207.2248,1136.3462c-2.27,18.02-26.1699,25.39-45.27,17.5601-9.1201-3.74-14.1499-11.48-14.6001-21.64l15.77-.23c1.1399,9.4301,7.7,13.76,16.99,13.05,6.1499-.47,11.55-4.55,12.3201-10.05,3.04-21.71-49.1499-8.54-44.01-43.6801.97-6.61,5.8701-13.75,12.9199-16.85,10.6201-4.66,22.6799-4.4,32.8.64,7.71,3.84,11.8601,10.6801,12,19.41l-15.3601-.11c-2.5901-8.79-9.29-12.03-17.96-10.8-5.25.75-9.6299,5.12-9.97,10.2-1.3201,19.98,48.72,7.76,44.3501,42.49l.02.01Z"/>
  <path class="cls-7" d="M1799.5249,1152.7762c-10.59,5.95-24.39,5.36-34.67.49-8.4-3.98-12.9301-11.0699-13.21-21.03l15.41-.13c1.3,9.96,8.79,14.41,18.62,12.89,6.09-.9399,11.16-5.71,11.24-11.63.26-19.6-51.6899-8.0699-44.39-43.3199,3.5-16.91,25.34-22.9301,43.17-16.0699,9.4301,3.63,14.41,11.92,14.8,20.89l-15.78-.37c-1.84-8.42-8.1899-11.46-16.22-10.99-6.17.36-11.26,4.3101-11.72,10.37-.41,5.38,3.95,9.4399,9.8,11.51l25.35,8.96c7.73,2.73,9.85,11.8101,9.66,18.9301-.1899,7.34-3.83,14.89-12.0601,19.51v-.0101Z"/>
  <path class="cls-5" d="M922.0249,1123.1662l-.08,32.78h-14.36l-.02-83.8199,33.9.33c14.7.14,24.89,10.1,25.94,23.0699,1.09,13.53-7.48,26.22-22.24,26.77l-23.14.87ZM942.1648,1111.0962c6.03-.25,10.44-7.8199,10.65-12.22.22-4.76-2.03-12.08-7.35-13.3-7.7-1.76-14.59-1.61-23.41-1.5699l-.02,27.91,20.14-.83-.0101.0099Z"/>
  <polygon class="cls-5" points="1734.9648 1119.5262 1705.3248 1119.4062 1705.4949 1144.3762 1738.9748 1144.4262 1738.9249 1156.1462 1691.1948 1156.0062 1691.1649 1072.2061 1738.8448 1072.1462 1738.9848 1084.1862 1705.4249 1084.0761 1705.3448 1107.5862 1734.8448 1107.5663 1734.9648 1119.5262"/>
  <polygon class="cls-7" points="1214.0449 1119.2362 1184.5748 1119.2662 1184.3248 1144.3261 1217.9848 1144.2862 1217.9648 1156.0462 1169.9149 1156.1462 1169.8949 1072.3362 1217.5249 1072.0862 1217.6749 1084.1262 1184.3548 1084.1162 1184.4648 1107.4362 1214.0249 1107.6362 1214.0449 1119.2362"/>
  <polygon class="cls-7" points="1640.0349 1119.2362 1610.3049 1119.3163 1610.2949 1144.2462 1643.8949 1144.4461 1643.8548 1156.1762 1596.0149 1156.1562 1596.0149 1072.1762 1643.8348 1072.1662 1643.8248 1084.1362 1610.2449 1084.1362 1610.2449 1107.4662 1639.9848 1107.6262 1640.0349 1119.2362"/>
  <g>
    <path class="cls-7" d="M1386.5149,1302.5362c.17,22.88-14.91,41.0699-37.66,41.37l-34.46.45v-84.0599l33,.4301c23.1.3,38.95,18.63,39.12,41.8v.0099ZM1356.9648,1329.4762c11.61-5.3101,15-16.67,15.0601-26.88.0601-10.4399-3.86-21.17-14.4399-26.62-8.36-4.3101-19.04-3.84-28.98-3.4399l.03,59.9301c9.3101.21,19.91.88,28.34-2.98l-.0101-.0101Z"/>
    <polygon class="cls-7" points="1443.1549 1307.4062 1413.4349 1307.4862 1413.4149 1332.4162 1447.0249 1332.6162 1446.9748 1344.3462 1399.1349 1344.3261 1399.1349 1260.3462 1446.9548 1260.3362 1446.9548 1272.3062 1413.3648 1272.3062 1413.3749 1295.6362 1443.1048 1295.7962 1443.1549 1307.4062"/>
  </g>
  <polygon class="cls-7" points="1351.9648 1155.3762 1337.4249 1156.0362 1337.3548 1084.2061 1314.5848 1084.1961 1314.6048 1072.1662 1374.9249 1072.1862 1374.9648 1084.2061 1351.8448 1084.1562 1351.9648 1155.3762"/>
  <polygon class="cls-5" points="2055.2348 1144.5062 2055.2749 1156.2362 2011.3248 1156.1562 2011.3049 1072.3762 2025.7949 1072.3662 2025.8248 1144.4962 2055.2348 1144.5062"/>
  <path class="cls-12" d="M1615.8949,1206.7362l-53.62,15.23c-6.47,1.84-7.21,10.7-1.13,13.59l75.6901,35.95c6.0699,2.88,12.47-3.29,9.8101-9.46l-22.08-51.1801c-1.45-3.36-5.16-5.12-8.6801-4.12l.0099-.0099Z"/>
</svg>